# xmcd
#
# Track frame offsets: 
#        150
#        18100
#        37450
#        47551
#        66333
#        83980
#        99096
#        117046
#        151213
#        171771
#        194704
#        218978
#
# Disc length: 3194 seconds
#
# Revision: 0
# Processed by: cddbd v1.5.2PL0 Copyright (c) Steve Scherf et al.
# Submitted via: ExactAudioCopyFreeDBPlugin 1.0
#
DISCID=a00c780c
DTITLE=Moe Provencher - Blues Filter Through
DYEAR=1900
DGENRE=Blues
TTITLE0=I Got The Blues
TTITLE1=Chop Chop Chop
TTITLE2=Goodbye Goodbye
TTITLE3=Goin Home
TTITLE4=Blues Filter Through
TTITLE5=On Tomorrow
TTITLE6=Hello Kentucky!
TTITLE7=Kicks and Spit
TTITLE8=Never Was A Bank
TTITLE9=500 Years
TTITLE10=One Day When I Die
TTITLE11=Class Act
EXTD=
EXTT0=
EXTT1=
EXTT2=
EXTT3=
EXTT4=
EXTT5=
EXTT6=
EXTT7=
EXTT8=
EXTT9=
EXTT10=
EXTT11=
PLAYORDER=
